<?xml version="1.0" encoding="UTF-8"?>
<svg version="1.1" xmlns="http://www.w3.org/2000/svg" width="512" height="512">
<path d="M0 0 C41.50464836 -0.09156168 83.00928506 -0.16204186 124.51401442 -0.20426132 C129.41437241 -0.20926413 134.3147302 -0.21444142 139.21508789 -0.21972656 C140.67844325 -0.22130043 140.67844325 -0.22130043 142.17136133 -0.22290608 C157.96626958 -0.24030983 173.76111956 -0.27184737 189.55599325 -0.30861118 C205.76380094 -0.34602141 221.97157812 -0.36823603 238.17942721 -0.37635398 C248.18001024 -0.38184157 258.18042861 -0.39917177 268.18096096 -0.43166587 C275.0393287 -0.45281475 281.89761135 -0.45919919 288.75600933 -0.45400551 C292.71258284 -0.45144431 296.66886868 -0.45536184 300.62539101 -0.4768219 C304.25099297 -0.4963431 307.87611487 -0.49723437 311.50173933 -0.48359558 C313.42774209 -0.48111564 315.35373952 -0.49831772 317.27965969 -0.51632524 C327.60629507 -0.44524135 334.69890789 2.10067592 342.27734375 9.13671875 C344.83816223 11.90658364 346.36077945 14.59546501 348 18 C348.35855513 18.72795619 348.71711025 19.45591238 349.08653069 20.20592785 C350.27770068 23.8494163 350.26986742 27.29070774 350.24050903 31.08015442 C350.24307231 32.29325233 350.24307231 32.29325233 350.24568737 33.53085726 C350.24897881 36.23786573 350.23798426 38.94462574 350.22705078 41.65161133 C350.22648659 43.5932108 350.22680338 45.53481069 350.22793579 47.47640991 C350.22851001 52.74664425 350.21674451 58.01678769 350.20278788 63.28700089 C350.19029202 68.79498221 350.18911092 74.30296556 350.18673706 79.81095886 C350.18051893 90.24081483 350.16410359 100.67062891 350.14403808 111.10046643 C350.12168946 122.97459486 350.11068826 134.84872529 350.10064721 146.72286952 C350.07973767 171.14860826 350.04305724 195.57428957 350 220 C329.87 220 309.74 220 289 220 C290.65 218.35 292.3 216.7 294 215 C294.66721536 211.91440699 294.66721536 211.91440699 294 209 C292.14657225 206.44050454 291.06243607 206.02081202 288 205 C286.33650032 204.90598739 284.66947763 204.86939734 283.00332642 204.86628723 C281.97148727 204.86202225 280.93964813 204.85775726 279.87654114 204.85336304 C278.74504135 204.85381622 277.61354156 204.85426941 276.44775391 204.85473633 C275.25565811 204.85137772 274.06356232 204.8480191 272.83534241 204.84455872 C269.56461759 204.83667919 266.29393084 204.8333807 263.02319765 204.83274293 C260.97935368 204.83203222 258.93551636 204.8298975 256.89167404 204.82724571 C249.76013517 204.81799289 242.62861499 204.81391071 235.49707031 204.81469727 C228.85160571 204.81529791 222.20622232 204.80474853 215.56077826 204.7889536 C209.85367661 204.77587279 204.14660148 204.7705136 198.43948495 204.77115268 C195.03164527 204.77140752 191.62387775 204.76856372 188.21605301 204.75797462 C184.41431149 204.74819795 180.61277992 204.75104376 176.81103516 204.75708008 C175.68358383 204.75146057 174.55613251 204.74584106 173.39451599 204.74005127 C172.3570372 204.74424576 171.31955841 204.74844025 170.25064087 204.75276184 C169.35210199 204.75221707 168.45356312 204.75167231 167.52779579 204.75111103 C164.42872452 205.05624828 161.26908442 205.73091558 159 208 C158.51881839 212.7029691 158.51881839 212.7029691 160.3125 216.875 C163.9421494 219.29476627 167.35015485 219.15055653 171.58276367 219.20532227 C172.24644455 219.21522186 172.91012543 219.22512146 173.59391785 219.23532104 C175.78523199 219.2668809 177.97656781 219.29167155 180.16796875 219.31640625 C181.68826355 219.33698055 183.20855269 219.35797715 184.72883606 219.37937927 C188.72858087 219.43455084 192.72837689 219.48398175 196.72821045 219.53222656 C200.81038974 219.5824775 204.89249474 219.63814481 208.97460938 219.69335938 C216.9830101 219.80088082 224.99147299 219.90233911 233 220 C233 220.33 233 220.66 233 221 C232.38253906 221.14695313 231.76507813 221.29390625 231.12890625 221.4453125 C224.69321872 223.14974116 218.89419064 225.36613865 214 230 C213.61819077 230.70539917 213.23638153 231.41079834 212.84300232 232.13757324 C209.37762611 238.51057224 209.37762611 238.51057224 205.70724487 239.81454468 C202.92141947 240.08772464 200.25452195 240.09063677 197.45703125 239.9921875 C196.45161789 239.994534 195.44620453 239.99688049 194.4103241 239.9992981 C191.20920179 240.00001304 188.01289427 239.94046644 184.8125 239.875 C181.60236914 239.84136846 178.39284269 239.82043255 175.18254089 239.81497192 C173.18801481 239.80821995 171.19345105 239.78331159 169.19941711 239.73849487 C168.29805527 239.72923981 167.39669342 239.71998474 166.46801758 239.71044922 C165.67559158 239.69440643 164.88316559 239.67836365 164.06672668 239.66183472 C161.4603541 240.08829881 160.62420368 240.96363912 159 243 C157.99521963 244.8522367 157.99521963 244.8522367 158 247 C159.76863589 250.69759178 159.76863589 250.69759178 163 253 C166.0604194 253.15745826 169.101419 253.25866877 172.1640625 253.31640625 C173.52487442 253.3475779 173.52487442 253.3475779 174.91317749 253.37937927 C177.8170398 253.44487135 180.72099405 253.50375814 183.625 253.5625 C185.59115542 253.60568555 187.55730147 253.64929985 189.5234375 253.69335938 C194.34886539 253.80136093 199.17436101 253.90043677 204 254 C204 263.57 204 273.14 204 283 C201.08671875 283.03738281 198.1734375 283.07476562 195.171875 283.11328125 C192.34871941 283.15949951 189.52569625 283.21073208 186.70263672 283.26245117 C184.74145564 283.29569428 182.78017902 283.32372815 180.81884766 283.34643555 C177.99860953 283.37999281 175.17924635 283.43230899 172.359375 283.48828125 C171.04510529 283.49786613 171.04510529 283.49786613 169.70428467 283.50764465 C164.87500994 283.61228435 164.87500994 283.61228435 160.46582031 285.41479492 C158.6884603 287.33691327 158.22990685 288.39438903 158 291 C158.38567131 293.68149993 158.38567131 293.68149993 159 296 C161.70948975 296.90316325 163.40135334 297.146575 166.19604492 297.20532227 C167.03668991 297.22526749 167.8773349 297.24521271 168.74345398 297.26576233 C169.64666885 297.28247482 170.54988373 297.29918732 171.48046875 297.31640625 C172.40845779 297.33718735 173.33644684 297.35796844 174.29255676 297.37937927 C177.2574624 297.44477323 180.22245672 297.50371262 183.1875 297.5625 C185.1972748 297.60569487 187.20704063 297.64930947 189.21679688 297.69335938 C194.14444167 297.80123429 199.07215361 297.90038332 204 298 C204 304.6 204 311.2 204 318 C201.00292969 318.03738281 198.00585938 318.07476562 194.91796875 318.11328125 C192.0187241 318.15947833 189.11960951 318.21071859 186.22045898 318.26245117 C184.20393765 318.2957271 182.18732258 318.32375068 180.1706543 318.34643555 C177.273519 318.37993256 174.37724482 318.43224544 171.48046875 318.48828125 C170.12564644 318.49786613 170.12564644 318.49786613 168.74345398 318.50764465 C167.90280899 318.52743881 167.062164 318.54723297 166.19604492 318.56762695 C165.45658127 318.57873001 164.71711761 318.58983307 163.95524597 318.60127258 C161.42608889 319.11703596 160.53743138 319.95041809 159 322 C158.33333333 325.5 158.33333333 325.5 159 329 C163.30761115 332.71876615 167.83555598 332.47146773 173.23828125 332.51171875 C174.41022034 332.53667419 174.41022034 332.53667419 175.60583496 332.56213379 C178.5077864 332.61970828 181.410193 332.65212974 184.3125 332.6875 C190.809375 332.790625 197.30625 332.89375 204 333 C204 347.85 204 362.7 204 378 C200.16850342 378.01458252 196.33700684 378.02916504 192.3894043 378.04418945 C179.75258712 378.09444939 167.11589879 378.16087759 154.47920513 378.23571491 C146.81500815 378.28070685 139.15085798 378.32011356 131.48657227 378.34643555 C124.80744348 378.36938824 118.12846245 378.40275541 111.44945079 378.44870156 C107.9119689 378.47267091 104.37463366 378.49137522 100.83707237 378.49761391 C96.89081101 378.50476829 92.94491782 378.53517088 88.9987793 378.56762695 C87.82202133 378.56619186 86.64526337 378.56475677 85.43284607 378.5632782 C83.82376373 378.58208542 83.82376373 378.58208542 82.18217468 378.60127258 C81.24839839 378.60588155 80.3146221 378.61049051 79.35254955 378.61523914 C76.56545138 379.07107068 75.67109552 379.76126469 74 382 C73.54978881 384.16314293 73.54978881 384.16314293 73.61523438 386.58813477 C73.60512329 387.51662735 73.59501221 388.44511993 73.58459473 389.40174866 C73.58761597 390.40483566 73.59063721 391.40792267 73.59375 392.44140625 C73.57749573 393.99757912 73.57749573 393.99757912 73.56091309 395.58518982 C73.526589 398.91102256 73.51105858 402.23651336 73.5 405.5625 C73.48535439 409.91829418 73.45145229 414.27333367 73.40625 418.62890625 C73.41078186 420.11228233 73.41078186 420.11228233 73.41540527 421.62562561 C73.31246464 431.30322453 71.36635977 439.43536827 65.1015625 446.953125 C57.14990266 454.69786433 49.35698751 456.37056227 38.6171875 456.28125 C30.86220346 455.67827068 24.39064756 452.63567699 19 447 C11.06246744 435.95232848 10.70749238 425.83860891 10.7484436 412.66741943 C10.74630375 410.99027224 10.74327736 409.31312598 10.73944318 407.6359818 C10.73141502 403.03675619 10.73570434 398.43761207 10.74196196 393.83838677 C10.74649969 388.87437342 10.73945345 383.91037549 10.73365784 378.94636536 C10.72502796 370.34630529 10.72321598 361.74626579 10.72560501 353.14620209 C10.72870365 340.69891302 10.71706015 328.2516694 10.70105521 315.80439177 C10.6750953 295.59176655 10.65507567 275.37914129 10.64160156 255.16650391 C10.64079119 253.95699543 10.63998082 252.74748696 10.6391459 251.50132671 C10.62792616 234.33971199 10.6226436 217.17810051 10.61975877 200.01648262 C10.61955478 198.80818691 10.61935079 197.5998912 10.61914062 196.35498047 C10.61894069 195.14815989 10.61874075 193.94133932 10.61853476 192.69794843 C10.61480034 172.56531163 10.59570488 152.43272412 10.56404626 132.30011201 C10.5451425 119.88681108 10.53916355 107.47363659 10.54986344 95.06032524 C10.55618789 86.55178198 10.5481269 78.04332931 10.52880932 69.53480592 C10.51813906 64.6279942 10.51395609 59.72140253 10.52728081 54.81459236 C10.53936982 50.31760685 10.53291948 45.82103311 10.51208882 41.32408312 C10.5078018 39.70231943 10.51018445 38.08052055 10.52012999 36.45878169 C10.59987995 22.42968504 7.84319697 11.81708344 0 0 Z M134 61 C121.67871495 74.90043709 115.08257483 91.60919259 116.0625 110.1875 C117.56113222 129.30318032 126.57525235 143.34746233 140.25390625 156.1015625 C153.40648953 167.09838167 170.05255111 171.26175211 186.87158203 170.20703125 C202.67231065 168.67009412 215.99634807 161.13998036 227 150 C227.63550781 149.38640625 228.27101563 148.7728125 228.92578125 148.140625 C240.31326331 136.32390304 245.26841616 119.08819367 245 103 C243.25519714 83.66018783 234.75020526 67.60771735 220 55 C193.30111957 35.5460419 157.74269621 37.51378353 134 61 Z M56 48 C55.49401025 51.11534024 55.30843768 53.69074585 55.34057617 56.80761719 C55.32485062 58.13985573 55.32485062 58.13985573 55.30880737 59.49900818 C55.28002711 62.43198452 55.28635238 65.36378257 55.29296875 68.296875 C55.27985552 70.33141563 55.26455246 72.36594323 55.24714661 74.40045166 C55.20723994 79.7533045 55.19710249 85.10581721 55.19311523 90.45880127 C55.18379451 95.92185827 55.14638761 101.38471452 55.11132812 106.84765625 C55.0466945 117.56509474 55.01350174 128.28238368 55 139 C54.45947998 138.37061523 53.91895996 137.74123047 53.36206055 137.09277344 C52.29145386 135.86349121 52.29145386 135.86349121 51.19921875 134.609375 C50.49369873 133.79436523 49.78817871 132.97935547 49.0612793 132.13964844 C46.50381202 129.48494712 44.69883752 128.32878556 41 128 C37.43553279 129.53920175 36.17152227 130.74271659 34 134 C34.11791241 139.3429062 36.3706919 142.07399529 40 145.6875 C41.00653702 146.73184585 42.01039789 147.77877684 43.01171875 148.828125 C43.51493652 149.35341797 44.0181543 149.87871094 44.53662109 150.41992188 C46.7606091 152.82126495 48.77924513 155.37428262 50.8125 157.9375 C55.35046911 163.58212382 55.35046911 163.58212382 61 168 C64.29787029 168.28066981 65.99946148 167.77819663 68.6171875 165.7421875 C73.08100567 161.48407524 76.8718705 156.58539372 80.71484375 151.7734375 C82.87725155 149.14897675 85.15392471 146.70939198 87.5 144.25 C89.82333578 141.65251059 91.51882061 139.63135491 92.25 136.1875 C92.26340757 132.96164002 92.26340757 132.96164002 90.375 130.625 C87.73395419 128.81796865 86.1791091 128.24271641 83 128 C80.77659148 129.24404198 80.77659148 129.24404198 78.875 131.1875 C78.21242187 131.79980469 77.54984375 132.41210938 76.8671875 133.04296875 C75.06380544 134.93312442 73.54748221 136.89945541 72 139 C71.98786972 137.3408255 71.98786972 137.3408255 71.97549438 135.64813232 C71.89805083 125.23024477 71.810316 114.8124881 71.71247292 104.39477158 C71.66250097 99.03876085 71.61617091 93.68276993 71.578125 88.32666016 C71.54128369 83.15890709 71.49492671 77.99131941 71.44193649 72.82370758 C71.42338644 70.85095365 71.40828074 68.87816426 71.39665604 66.90535736 C71.37980416 64.14473999 71.35077152 61.38450189 71.31884766 58.62402344 C71.31668747 57.80618881 71.31452728 56.98835419 71.31230164 56.14573669 C71.28489449 50.73975057 71.28489449 50.73975057 69 46 C63.69885201 42.46590134 60.3006741 43.4281545 56 48 Z M292 46 C289.98032672 48.18048018 289.98032672 48.18048018 288 50.8125 C283.88511982 55.99546888 279.52612217 60.85780766 274.98632812 65.67114258 C270.56369985 70.14852795 270.56369985 70.14852795 268.625 75.9375 C268.77495934 79.04070689 268.77495934 79.04070689 270.5625 81.375 C272.98754494 83.17633738 272.98754494 83.17633738 276.1875 83.875 C280.76688516 82.82399357 281.72485397 81.44210346 284.73828125 77.9453125 C285.53919189 77.02508301 286.34010254 76.10485352 287.1652832 75.15673828 C287.77073975 74.44501465 288.37619629 73.73329102 289 73 C289.00364563 74.10389572 289.00729126 75.20779144 289.01104736 76.34513855 C289.04798779 86.74807173 289.10575012 97.15070864 289.18390274 107.55341625 C289.22341275 112.90159012 289.255584 118.24959848 289.27099609 123.59790039 C289.28613937 128.7592911 289.3205437 133.92022687 289.36830902 139.08141518 C289.38314683 141.05054076 289.39104239 143.01973128 289.39188385 144.98891258 C289.39424803 147.74725225 289.42128314 150.50432903 289.45410156 153.26245117 C289.4490712 154.07669052 289.44404083 154.89092987 289.43885803 155.72984314 C289.51075439 159.63519697 289.73888806 161.58011221 291.8505249 164.9757843 C293.92211436 167.18342345 293.92211436 167.18342345 296.9375 168.125 C300.13749778 168.28096444 300.13749778 168.28096444 302.65019226 166.04402161 C305.79483544 161.97034289 305.71187724 159.17899058 305.65942383 154.1706543 C305.67514938 152.85282707 305.67514938 152.85282707 305.69119263 151.50837708 C305.71992387 148.61329753 305.71365339 145.71941522 305.70703125 142.82421875 C305.72014745 140.81352745 305.73545143 138.80284933 305.75285339 136.79219055 C305.79272528 131.50675515 305.80289528 126.22166426 305.80688477 120.93609619 C305.81621202 115.53997329 305.85362306 110.14405317 305.88867188 104.74804688 C305.95327011 94.16537407 305.9864919 83.58285271 306 73 C306.55429687 73.63808594 307.10859375 74.27617188 307.6796875 74.93359375 C308.40414062 75.75988281 309.12859375 76.58617187 309.875 77.4375 C310.59429687 78.26121094 311.31359375 79.08492187 312.0546875 79.93359375 C314.69924205 82.74276917 315.5199657 82.96508841 319.4375 83.25 C322.8661493 83.29257412 322.8661493 83.29257412 324.875 81.8125 C326.35405406 79.42957957 326.86591307 77.81582552 327 75 C325.07937758 71.30462522 322.70617749 68.40912928 319.875 65.375 C316.53989803 61.74705981 313.3852028 58.04007661 310.3125 54.1875 C307.1247288 50.2666525 304.19887479 46.83179928 300 44 C296.14425044 44 295.06644825 44.00561081 292 46 Z M115.0456543 210.72729492 C113.96669645 211.80656611 112.8931237 212.89124034 111.82421875 213.98046875 C111.25419632 214.55332108 110.68417389 215.1261734 110.09687805 215.71638489 C108.28897622 217.53542354 106.48817881 219.36131378 104.6875 221.1875 C103.45814588 222.4268923 102.22833292 223.66582965 100.99804688 224.90429688 C97.99336069 227.93095715 94.99502376 230.96377921 92 234 C86.91359623 231.07363403 83.40808242 227.43848516 79.40234375 223.1796875 C77.09456898 221.08580405 76.05166711 220.24413337 73 220 C69.2189697 221.08029437 68.23795825 221.64306263 66 225 C65.47552638 228.78879746 65.59948474 230.42831978 67.81665039 233.59301758 C69.06949829 234.85601685 69.06949829 234.85601685 70.34765625 236.14453125 C71.72147461 237.52995117 71.72147461 237.52995117 73.12304688 238.94335938 C73.84802368 239.64948364 73.84802368 239.64948364 74.58764648 240.36987305 C76.0550803 241.80524243 77.48781088 243.2697171 78.91992188 244.74023438 C79.84482422 245.65740234 80.76972656 246.57457031 81.72265625 247.51953125 C82.56578369 248.35589111 83.40891113 249.19225098 84.27758789 250.05395508 C87.62408413 252.44611018 89.90762764 252.92752692 94 253 C96.01837178 252.14752237 96.01837178 252.14752237 97.5390625 250.44140625 C98.20711914 249.79187988 98.87517578 249.14235352 99.56347656 248.47314453 C100.3675293 247.65700684 101.17158203 246.84086914 102 246 C103.0726447 244.96073988 104.14805707 243.92433196 105.22558594 242.89013672 C108.3302863 239.90041932 111.39920035 236.87669505 114.45654297 233.83862305 C115.74183708 232.56494206 117.03160929 231.29576509 118.32568359 230.03100586 C120.21398011 228.18533294 122.08871363 226.3268021 123.9609375 224.46484375 C124.53798431 223.90530502 125.11503113 223.3457663 125.70956421 222.76927185 C129.02427757 219.4364192 131.05723236 216.75875187 132 212 C130.46079825 208.43553279 129.25728341 207.17152227 126 205 C121.22170977 205 118.3771853 207.52814977 115.0456543 210.72729492 Z M118.40625 286.78515625 C117.72046875 287.42469238 117.0346875 288.06422852 116.328125 288.72314453 C115.17570312 289.85018799 115.17570312 289.85018799 114 291 C113.10796875 291.87124512 112.2159375 292.74249023 111.296875 293.64013672 C108.34177041 296.55006027 105.41991832 299.49234429 102.5 302.4375 C101.47679861 303.4657298 100.45336267 304.49372626 99.4296875 305.52148438 C96.95042001 308.01164338 94.47432462 310.50492833 92 313 C88.2341893 309.80366305 84.53600773 306.57208371 80.9375 303.1875 C78.48123797 301.05842346 76.88625429 299.95539384 73.8125 298.75 C70.79903604 298.78759247 70.79903604 298.78759247 68.0625 301 C65.96211735 304.05510204 65.47278356 305.3221302 66.12426758 308.93115234 C68.17475132 313.77525583 72.57134648 317.24675587 76.3125 320.8125 C77.18068359 321.67037109 78.04886719 322.52824219 78.94335938 323.41210938 C83.91492958 328.49799237 83.91492958 328.49799237 90 332 C100.63190491 331.1619364 111.99833902 315.59059417 118.6875 307.8125 C119.47060547 306.88630859 119.47060547 306.88630859 120.26953125 305.94140625 C123.06178852 302.80878353 126.12703428 299.95486261 129.1796875 297.078125 C131.0504591 294.94239433 131.76321329 293.8067888 132 291 C130.6007781 288.20155619 129.21208617 286.21208617 127 284 C123.04899449 283.50773172 121.27595739 284.08465331 118.40625 286.78515625 Z " fill="#000000" transform="translate(74,9)"/>
<path d="M0 0 C1.10896585 -0.00573832 1.10896585 -0.00573832 2.24033505 -0.01159257 C4.7067698 -0.02187516 7.17296969 -0.01793951 9.63941956 -0.01396179 C11.41217768 -0.01831087 13.18493392 -0.02349468 14.95768738 -0.02944946 C19.76552121 -0.04282909 24.57327639 -0.04341932 29.38112521 -0.04088616 C33.39706334 -0.03981582 37.4129856 -0.0447014 41.42892033 -0.04949158 C50.90388399 -0.06058303 60.37880801 -0.06102611 69.85377502 -0.05497742 C79.62405749 -0.04893607 89.39419601 -0.06125358 99.16445392 -0.08254749 C107.55783011 -0.10016699 115.95116049 -0.10616432 124.34455448 -0.10290974 C129.35538813 -0.10109742 134.36611907 -0.10372813 139.37693596 -0.11762428 C144.08918726 -0.13020377 148.80121419 -0.12825734 153.51346207 -0.11521339 C155.24080163 -0.11284839 156.96815699 -0.11557957 158.69547844 -0.12383652 C161.05766176 -0.13431227 163.41909335 -0.1261972 165.78125 -0.11352539 C166.80091855 -0.12458682 166.80091855 -0.12458682 167.84118646 -0.13587171 C173.43409973 -0.07296618 178.18019309 1.22684829 182.41505432 5.01460266 C183.11501526 5.90985657 183.11501526 5.90985657 183.82911682 6.82319641 C184.55228088 7.7223175 184.55228088 7.7223175 185.29005432 8.63960266 C188.15101033 12.62381992 187.59908418 16.65855212 187.59455872 21.38233948 C187.59752984 22.33944974 187.60050096 23.29656 187.60356212 24.2826736 C187.61227741 27.51005709 187.61375975 30.73740362 187.61524963 33.96479797 C187.61987583 36.27060018 187.62490022 38.57640161 187.6302948 40.88220215 C187.64344052 47.16121166 187.64986807 53.44021047 187.65430546 59.71923161 C187.65723288 63.639353 187.66133707 67.55947145 187.66580963 71.47959137 C187.67792209 82.33128375 187.68830275 93.18297288 187.69168472 104.03467178 C187.69201407 105.07688533 187.69201407 105.07688533 187.69235007 106.14015369 C187.69256835 106.83663751 187.69278663 107.53312133 187.69301152 108.25071073 C187.69345499 109.66207965 187.69390155 111.07344858 187.6943512 112.4848175 C187.69468334 113.53495191 187.69468334 113.53495191 187.6950222 114.60630116 C187.69896933 125.94767099 187.71641981 137.28897653 187.73971072 148.63032153 C187.76342514 160.27180525 187.77562866 171.91325353 187.77705264 183.55476165 C187.77810215 190.09201367 187.78404098 196.62917509 187.80187225 203.16640472 C187.81831847 209.31575075 187.82052516 215.46493772 187.81173325 221.61429787 C187.810961 223.87258898 187.81533011 226.13088853 187.8251915 228.38915825 C187.83785681 231.47000249 187.8320634 234.55027883 187.8216095 237.63111877 C187.8336941 238.97441612 187.8336941 238.97441612 187.84602284 240.34485078 C187.80030051 246.09885997 187.01094344 250.52170403 182.91896057 254.90522766 C177.96166987 258.69609702 175.28642695 259.41034514 169.16819763 259.41459656 C168.40850902 259.41897881 167.6488204 259.42336107 166.86611092 259.42787611 C164.30673935 259.44128815 161.74740222 259.44744841 159.18800354 259.4535675 C157.35834598 259.46146672 155.52868999 259.46973555 153.69903564 259.47834778 C147.67730706 259.5045936 141.65557144 259.51988014 135.63380432 259.53413391 C133.56181458 259.53949295 131.48982488 259.54487046 129.41783524 259.55026627 C120.79824107 259.57190068 112.1786488 259.5906369 103.55903435 259.60188866 C91.20287115 259.6181232 78.84702267 259.65128265 66.49097812 259.7082895 C57.80553427 259.74699537 49.12017456 259.76652225 40.43464673 259.77180922 C35.24644299 259.7754624 30.05857473 259.78747992 24.87046432 259.81991196 C19.98664159 259.850003 15.10335712 259.85630064 10.21946144 259.8445282 C8.42963593 259.84430754 6.63978539 259.85260653 4.85004616 259.87018204 C-11.9677378 260.02630614 -11.9677378 260.02630614 -18.54588318 254.26069641 C-21.65521686 250.14835186 -22.66814735 246.29217447 -22.67731094 241.19885635 C-22.68115209 240.39464477 -22.68499323 239.59043318 -22.68895078 238.76185155 C-22.68808429 237.88404176 -22.68721781 237.00623198 -22.68632507 236.1018219 C-22.6892962 235.16483168 -22.69226732 234.22784147 -22.69532847 233.26245761 C-22.70401704 230.11505165 -22.70552386 226.96768373 -22.70701599 223.82026672 C-22.71164405 221.56667499 -22.71666869 219.31308405 -22.72206116 217.05949402 C-22.73518829 210.93129029 -22.74163073 204.80309753 -22.74607182 198.67488194 C-22.74900202 194.84686447 -22.75310673 191.01885 -22.75757599 187.19083405 C-22.76968474 176.58783722 -22.78006683 165.98484301 -22.78345108 155.38183975 C-22.78367065 154.70344214 -22.78389021 154.02504454 -22.78411643 153.32608943 C-22.78433471 152.64608746 -22.78455299 151.9660855 -22.78477788 151.26547742 C-22.78522134 149.88758167 -22.78566791 148.50968591 -22.78611755 147.13179016 C-22.78633898 146.44830925 -22.78656041 145.76482835 -22.78678855 145.06063589 C-22.79073545 133.98910447 -22.80818674 122.9176389 -22.83147708 111.8461329 C-22.85520731 100.47351785 -22.86739586 89.10094694 -22.868819 77.72830272 C-22.86986744 71.34527587 -22.87578378 64.96234193 -22.89363861 58.57933807 C-22.91010893 52.57441473 -22.91227974 46.56965422 -22.9034996 40.56471634 C-22.90272868 38.36209045 -22.90707921 36.15945583 -22.91695786 33.95685196 C-22.92966464 30.94687591 -22.92380716 27.93747767 -22.91337585 24.92750549 C-22.92143226 24.0586186 -22.92948866 23.1897317 -22.9377892 22.29451489 C-22.88993094 16.37823263 -22.25542306 10.42066055 -18.23555112 5.73253942 C-12.79983501 0.85887914 -7.05103339 -0.03907296 0 0 Z M8.45411682 35.26069641 C7.72997209 39.4047265 7.83732363 43.53057129 7.87770081 47.73286438 C7.89158137 49.75553034 7.85747486 51.77357653 7.8193512 53.79585266 C7.82128479 55.0733136 7.82321838 56.35077454 7.82521057 57.66694641 C7.82448547 58.83548157 7.82376038 60.00401672 7.82301331 61.20796204 C8.18875324 64.39519322 8.18875324 64.39519322 10.63064575 66.42016697 C13.85478502 68.52187905 15.45350074 68.76111025 19.26075745 68.76190186 C20.42155823 68.77173599 21.58235901 68.78157013 22.77833557 68.79170227 C24.04290588 68.7820343 25.3074762 68.77236633 26.61036682 68.7624054 C27.96258608 68.76619057 29.31480146 68.77169226 30.66700745 68.77877808 C34.33238477 68.7927244 37.99729226 68.7815691 41.66264343 68.76506686 C45.50134131 68.75120165 49.34001231 68.75767811 53.1787262 68.76119995 C59.62476663 68.76390092 66.07062073 68.75043634 72.51661682 68.72724915 C79.9653873 68.70064002 87.41384628 68.69889268 94.86264801 68.71063751 C102.03290791 68.72142286 109.2030553 68.71522231 116.37330627 68.70108223 C119.42264978 68.69532897 122.47191079 68.6953999 125.52125549 68.70014763 C129.1131874 68.70492576 132.70477893 68.69478154 136.29664612 68.67319298 C138.2410469 68.66498889 140.1854923 68.67146876 142.12989807 68.6783905 C143.29069885 68.66848587 144.45149963 68.65858124 145.6474762 68.64837646 C147.15731079 68.64473162 147.15731079 68.64473162 148.69764709 68.64101315 C151.95699697 68.19131283 153.83910667 67.23810034 156.45411682 65.26069641 C158.16316597 60.13354897 157.72309553 54.75332243 157.76661682 49.38569641 C157.79562073 48.20104797 157.82462463 47.01639954 157.85450745 45.79585266 C157.86288635 44.65245422 157.87126526 43.50905579 157.87989807 42.33100891 C157.89448059 41.28702942 157.90906311 40.24304993 157.92408752 39.16743469 C157.32116109 35.43837382 156.09889272 33.9327024 153.45411682 31.26069641 C150.7232312 30.51617145 150.7232312 30.51617145 147.64710999 30.63250732 C146.46099625 30.61985336 145.27488251 30.6071994 144.05282593 30.59416199 C142.75503708 30.60585419 141.45724823 30.61754639 140.12013245 30.6295929 C138.73687828 30.62445373 137.35363065 30.61717247 135.97039795 30.60791016 C132.21610735 30.58938684 128.46252641 30.60233984 124.7082653 30.62200046 C120.77966861 30.63838098 116.85111707 30.62957491 112.92250061 30.6244812 C106.32501382 30.61995955 99.72781047 30.63583428 93.13038635 30.66377258 C85.50262022 30.69582502 77.87536532 30.69580913 70.24756289 30.67855781 C62.91015493 30.66269446 55.57293442 30.66942498 48.23553467 30.68649483 C45.11277274 30.6933678 41.99016095 30.69233042 38.86740112 30.68494987 C35.19003291 30.67728903 31.51324654 30.68940561 27.83597755 30.71679878 C25.84247781 30.72697166 23.84890821 30.71749799 21.85540771 30.70747375 C20.07623711 30.72656044 20.07623711 30.72656044 18.26112366 30.74603271 C16.7147736 30.7502431 16.7147736 30.7502431 15.13718414 30.75453854 C11.73620405 31.39612991 10.5493205 32.55310454 8.45411682 35.26069641 Z M10.30567932 92.51069641 C7.15085721 97.19633938 7.73584324 102.2575551 7.82911682 107.76069641 C7.80978088 108.90151672 7.79044495 110.04233704 7.77052307 111.21772766 C7.75362318 117.46762943 7.75362318 117.46762943 10.27052307 123.01069641 C15.16938975 124.93417781 19.80135186 124.83848781 25.01661682 124.76069641 C26.05753479 124.77616516 27.09845276 124.79163391 28.1709137 124.80757141 C29.17315979 124.80241516 30.17540588 124.79725891 31.20802307 124.79194641 C32.11882629 124.78743469 33.02962952 124.78292297 33.96803284 124.77827454 C37.29213431 124.08622945 38.45512446 122.98165827 40.45411682 120.26069641 C41.27401296 116.13307283 41.05695575 111.96069053 41.01661682 107.76069641 C41.04046448 106.6198761 41.06431213 105.47905579 41.08888245 104.30366516 C41.14653741 98.04362641 41.14653741 98.04362641 38.60646057 92.51069641 C33.87904449 90.63613241 29.49441826 90.68152937 24.45411682 90.76069641 C23.46927307 90.74522766 22.48442932 90.72975891 21.46974182 90.71382141 C17.36387049 90.73601531 14.13965142 90.98852387 10.30567932 92.51069641 Z M67.45411682 94.26069641 C65.39786738 98.3731953 66.13686612 103.61550139 66.07911682 108.13569641 C66.04173401 109.23784485 66.0043512 110.33999329 65.96583557 111.47554016 C65.82545371 117.5773419 65.82545371 117.5773419 68.25489807 122.99116516 C73.16033007 124.93776516 77.78951642 124.798905 83.01661682 124.69819641 C84.05753479 124.70528625 85.09845276 124.7123761 86.1709137 124.71968079 C92.95396609 124.83475612 92.95396609 124.83475612 98.45411682 121.26069641 C100.08890818 117.02880502 99.63822505 112.29694851 99.64161682 107.82319641 C99.65998596 106.55379211 99.65998596 106.55379211 99.6787262 105.25874329 C99.73763878 98.99618011 99.73763878 98.99618011 97.45411682 93.26069641 C92.89786898 90.41977134 88.22086532 90.93045869 83.01661682 90.94819641 C81.60412659 90.92402649 81.60412659 90.92402649 80.1631012 90.89936829 C73.30766961 90.88947853 73.30766961 90.88947853 67.45411682 94.26069641 Z M125.45411682 94.26069641 C123.46385783 98.2412144 124.13779723 103.19617144 124.07911682 107.57319641 C124.04173401 108.61927063 124.0043512 109.66534485 123.96583557 110.74311829 C123.91300683 115.35389343 123.96614176 118.39377325 126.25489807 122.45991516 C131.10769129 125.19146299 135.54525343 124.91031729 141.01661682 124.76069641 C142.57799377 124.7645636 142.57799377 124.7645636 144.1709137 124.76850891 C150.93435341 124.81440117 150.93435341 124.81440117 156.45411682 121.26069641 C157.93419424 116.82046415 157.63848922 112.47394343 157.64161682 107.82319641 C157.65998596 106.39137024 157.65998596 106.39137024 157.6787262 104.93061829 C157.68065979 104.00958313 157.68259338 103.08854797 157.68458557 102.13960266 C157.68869446 101.29985901 157.69280334 100.46011536 157.69703674 99.59492493 C157.42408564 96.97212541 156.93508168 95.44220066 155.45411682 93.26069641 C151.05960742 90.29515233 146.11985476 90.93080296 141.01661682 90.94819641 C139.60412659 90.92402649 139.60412659 90.92402649 138.1631012 90.89936829 C131.30766961 90.88947853 131.30766961 90.88947853 125.45411682 94.26069641 Z M9.61402893 146.94795227 C7.36966128 151.422988 7.98479131 156.35378077 8.01661682 161.26069641 C7.99663635 162.35382141 7.97665588 163.44694641 7.95606995 164.57319641 C7.95671448 165.62507141 7.95735901 166.67694641 7.95802307 167.76069641 C7.95617004 168.71975891 7.95431702 169.67882141 7.95240784 170.66694641 C8.61073669 174.07039446 9.67162165 175.22809147 12.45411682 177.26069641 C15.08207248 177.87098927 15.08207248 177.87098927 17.95411682 177.79194641 C19.00599182 177.79710266 20.05786682 177.80225891 21.14161682 177.80757141 C22.23474182 177.79210266 23.32786682 177.77663391 24.45411682 177.76069641 C25.54724182 177.77616516 26.64036682 177.79163391 27.76661682 177.80757141 C28.81849182 177.80241516 29.87036682 177.79725891 30.95411682 177.79194641 C31.91317932 177.78743469 32.87224182 177.78292297 33.86036682 177.77827454 C37.26310185 177.09926491 38.42730197 176.05530193 40.45411682 173.26069641 C41.04956496 170.51701868 41.04956496 170.51701868 40.95021057 167.50679016 C40.9508551 166.40528625 40.95149963 165.30378235 40.9521637 164.16889954 C40.92219299 162.45090149 40.92219299 162.45090149 40.89161682 160.69819641 C40.89870667 159.54899719 40.90579651 158.39979797 40.9131012 157.21577454 C41.14605396 151.57206536 41.14605396 151.57206536 39.29420471 146.43647766 C35.11420489 143.76553708 29.24733835 144.79491023 24.45411682 144.82319641 C23.25271057 144.80321594 22.05130432 144.78323547 20.81349182 144.76264954 C19.66364807 144.76329407 18.51380432 144.7639386 17.32911682 144.76460266 C15.74743713 144.76182312 15.74743713 144.76182312 14.13380432 144.75898743 C11.38003011 145.03018667 11.38003011 145.03018667 9.61402893 146.94795227 Z M66.45411682 149.26069641 C65.84382396 151.88865207 65.84382396 151.88865207 65.92286682 154.76069641 C65.91771057 155.81257141 65.91255432 156.86444641 65.90724182 157.94819641 C65.92271057 159.04132141 65.93817932 160.13444641 65.95411682 161.26069641 C65.93864807 162.35382141 65.92317932 163.44694641 65.90724182 164.57319641 C65.91239807 165.62507141 65.91755432 166.67694641 65.92286682 167.76069641 C65.92737854 168.71975891 65.93189026 169.67882141 65.9365387 170.66694641 C66.61399795 174.06191203 67.67413325 175.23063867 70.45411682 177.26069641 C73.08312412 177.85524387 73.08312412 177.85524387 75.95411682 177.75679016 C77.00599182 177.75743469 78.05786682 177.75807922 79.14161682 177.75874329 C80.23474182 177.73876282 81.32786682 177.71878235 82.45411682 177.69819641 C83.54724182 177.70528625 84.64036682 177.7123761 85.76661682 177.71968079 C92.76884739 177.88539144 92.76884739 177.88539144 98.45411682 174.26069641 C100.0832218 170.0309573 99.67699019 165.29570042 99.70411682 160.82319641 C99.72474182 159.97692688 99.74536682 159.13065735 99.76661682 158.25874329 C99.79702001 153.40563357 99.57601983 150.22614391 96.45411682 146.26069641 C93.85532103 143.66190062 86.63325304 144.97714862 83.14161682 144.94819641 C81.98726135 144.9191925 80.83290588 144.8901886 79.64356995 144.86030579 C78.5330426 144.85192688 77.42251526 144.84354797 76.27833557 144.83491516 C75.2582843 144.82033264 74.23823303 144.80575012 73.18727112 144.79072571 C69.66845872 145.39579171 68.52835523 146.38127609 66.45411682 149.26069641 Z M124.45411682 149.26069641 C124.05910738 151.88716266 123.90615769 154.09563509 123.9365387 156.71968079 C123.92952942 157.46486465 123.92252014 158.21004852 123.91529846 158.97781372 C123.89771641 161.43707217 123.90934108 163.8951766 123.92286682 166.35444641 C123.92017195 168.06550823 123.91628956 169.77656855 123.91127014 171.48762512 C123.90537484 175.07212416 123.91393883 178.65622425 123.93263245 182.24067688 C123.95542231 186.8343608 123.94229936 191.42710995 123.91834259 196.02075958 C123.90388531 199.55355365 123.90849022 203.08612625 123.91885376 206.618927 C123.92152125 208.31260285 123.91825047 210.00629884 123.90893555 211.69995117 C123.8987707 214.06774618 123.91426803 216.43402958 123.9365387 218.80171204 C123.92844177 219.50105362 123.92034485 220.2003952 123.91200256 220.92092896 C123.97041338 224.27462253 124.25367612 225.99915667 126.31861877 228.69354248 C130.54991271 231.79871456 135.90292441 230.87171069 140.95411682 230.82319641 C142.09493713 230.84704407 143.23575745 230.87089172 144.41114807 230.89546204 C145.50814026 230.89352844 146.60513245 230.89159485 147.73536682 230.88960266 C149.23680237 230.89069031 149.23680237 230.89069031 150.76856995 230.89179993 C154.52774268 230.00839433 155.39638132 228.48483343 157.45411682 225.26069641 C158.05770403 221.76868014 158.05770403 221.76868014 157.97169495 217.88764954 C157.97870422 217.16343307 157.9857135 216.43921661 157.99293518 215.6930542 C158.0104812 213.30895679 157.99890556 210.92605502 157.98536682 208.54194641 C157.98806274 206.8795499 157.99194599 205.21715492 157.9969635 203.55476379 C158.00285391 200.07458957 157.99431064 196.59482665 157.9756012 193.11470032 C157.95281154 188.65901703 157.96593712 184.20429754 157.98989105 179.7486496 C158.00436161 176.31703968 157.99973736 172.88565738 157.98937988 169.45404053 C157.98671605 167.81143072 157.98997027 166.16880008 157.9992981 164.5262146 C158.00948492 162.22816928 157.9939353 159.9316735 157.97169495 157.63374329 C157.96851257 156.32756042 157.9653302 155.02137756 157.96205139 153.6756134 C157.37171202 149.70667714 156.30601452 148.03664648 153.45411682 145.26069641 C150.73622629 144.51360981 150.73622629 144.51360981 147.73536682 144.63179016 C146.63837463 144.62985657 145.54138245 144.62792297 144.41114807 144.62593079 C142.6999176 144.66170227 142.6999176 144.66170227 140.95411682 144.69819641 C139.24288635 144.68176086 139.24288635 144.68176086 137.49708557 144.66499329 C129.92518222 144.52261414 129.92518222 144.52261414 124.45411682 149.26069641 Z M8.45411682 202.26069641 C7.84382396 204.88865207 7.84382396 204.88865207 7.92286682 207.76069641 C7.91771057 208.81257141 7.91255432 209.86444641 7.90724182 210.94819641 C7.92271057 212.04132141 7.93817932 213.13444641 7.95411682 214.26069641 C7.93864807 215.35382141 7.92317932 216.44694641 7.90724182 217.57319641 C7.91239807 218.62507141 7.91755432 219.67694641 7.92286682 220.76069641 C7.92737854 221.71975891 7.93189026 222.67882141 7.9365387 223.66694641 C8.61554832 227.06968144 9.6595113 228.23388156 12.45411682 230.26069641 C15.19779456 230.85614455 15.19779456 230.85614455 18.20802307 230.75679016 C19.30952698 230.75743469 20.41103088 230.75807922 21.5459137 230.75874329 C22.69124573 230.73876282 23.83657776 230.71878235 25.01661682 230.69819641 C26.16581604 230.70528625 27.31501526 230.7123761 28.4990387 230.71968079 C34.14274787 230.95263355 34.14274787 230.95263355 39.27833557 229.1007843 C41.94927615 224.92078448 40.919903 219.05391794 40.89161682 214.26069641 C40.91159729 213.05929016 40.93157776 211.85788391 40.9521637 210.62007141 C40.95151917 209.47022766 40.95087463 208.32038391 40.95021057 207.13569641 C40.9520636 206.08124329 40.95391663 205.02679016 40.95582581 203.94038391 C40.68462656 201.1866097 40.68462656 201.1866097 38.76686096 199.42060852 C34.29182523 197.17624087 29.36103246 197.7913709 24.45411682 197.82319641 C23.36099182 197.80321594 22.26786682 197.78323547 21.14161682 197.76264954 C20.08974182 197.76329407 19.03786682 197.7639386 17.95411682 197.76460266 C16.51552307 197.76182312 16.51552307 197.76182312 15.04786682 197.75898743 C11.64441877 198.41731628 10.48672176 199.47820124 8.45411682 202.26069641 Z M66.45411682 202.26069641 C65.84382396 204.88865207 65.84382396 204.88865207 65.92286682 207.76069641 C65.91771057 208.81257141 65.91255432 209.86444641 65.90724182 210.94819641 C65.92271057 212.04132141 65.93817932 213.13444641 65.95411682 214.26069641 C65.93864807 215.35382141 65.92317932 216.44694641 65.90724182 217.57319641 C65.91239807 218.62507141 65.91755432 219.67694641 65.92286682 220.76069641 C65.92737854 221.71975891 65.93189026 222.67882141 65.9365387 223.66694641 C66.61554832 227.06968144 67.6595113 228.23388156 70.45411682 230.26069641 C73.19779456 230.85614455 73.19779456 230.85614455 76.20802307 230.75679016 C77.30952698 230.75743469 78.41103088 230.75807922 79.5459137 230.75874329 C80.69124573 230.73876282 81.83657776 230.71878235 83.01661682 230.69819641 C84.16581604 230.70528625 85.31501526 230.7123761 86.4990387 230.71968079 C92.1774354 230.99135648 92.1774354 230.99135648 97.24293518 228.9835968 C100.27602587 224.66903905 99.63755715 219.37749279 99.64161682 214.32319641 C99.65998596 213.12533508 99.65998596 213.12533508 99.6787262 211.90327454 C99.68943961 207.5929095 99.55441192 204.14439997 97.45411682 200.26069641 C93.81621647 196.62279606 87.99606391 197.89117185 83.07911682 197.88569641 C81.3543512 197.84895813 81.3543512 197.84895813 79.59474182 197.81147766 C77.93571838 197.80567688 77.93571838 197.80567688 76.24317932 197.79975891 C74.72264954 197.78743225 74.72264954 197.78743225 73.17140198 197.77485657 C69.67192622 198.400549 68.52286466 199.39539302 66.45411682 202.26069641 Z " fill="#000000" transform="translate(315.54588317871094,243.7393035888672)"/>
<path d="M0 0 C38.28 0 76.56 0 116 0 C116 20.79 116 41.58 116 63 C74.09 63 32.18 63 -11 63 C-9.87754299 60.75508598 -8.74229338 58.5160998 -7.5625 56.30078125 C-7.046875 55.31464844 -6.53125 54.32851563 -6 53.3125 C-5.2265625 51.85263672 -5.2265625 51.85263672 -4.4375 50.36328125 C2.21610339 34.79601897 -0.4176227 15.86966267 0 0 Z " fill="#000000" transform="translate(162,402)"/>
<path d="M0 0 C7.76051687 5.18889461 13.52516794 11.12138397 15.9921875 20.33203125 C16.25074778 23.44747669 16.22587799 26.54363739 16.1875 29.66796875 C16.18548584 30.44825439 16.18347168 31.22854004 16.18139648 32.0324707 C16.17099815 34.9240514 16.14307591 37.81554775 16.1171875 40.70703125 C16.0759375 47.18328125 16.0346875 53.65953125 15.9921875 60.33203125 C-4.1378125 60.33203125 -24.2678125 60.33203125 -45.0078125 60.33203125 C-45.0903125 54.10328125 -45.1728125 47.87453125 -45.2578125 41.45703125 C-45.29422852 39.51199707 -45.33064453 37.56696289 -45.36816406 35.56298828 C-45.50296309 23.34522443 -44.51947127 14.24015012 -35.80078125 5.01953125 C-26.46470343 -3.76736552 -11.50208173 -6.1416776 0 0 Z " fill="#000000" transform="translate(54.0078125,11.66796875)"/>
<path d="M0 0 C2.9375 2.1875 2.9375 2.1875 5 5 C5.3125 7.8125 5.3125 7.8125 5 10 C5.73734375 10.09410156 6.4746875 10.18820313 7.234375 10.28515625 C10.40664639 11.10510775 11.85351605 12.23767409 14.25 14.4375 C14.93578125 15.05496094 15.6215625 15.67242187 16.328125 16.30859375 C18.54666355 18.5530498 18.96098801 19.64889212 19.3125 22.8125 C18.91034486 26.91448247 18.18026445 28.36270753 15 31 C11.88839755 31.65657666 9.11243816 31.65739348 6 31 C5.360625 30.34 4.72125 29.68 4.0625 29 C1.45962254 26.47599762 0.36152968 26.70253826 -3.1875 26.6875 C-6.40135641 26.55042666 -6.40135641 26.55042666 -9 28 C-9.16666667 31 -9.16666667 31 -9 34 C-6.73377532 36.26622468 -1.35192643 36.15833575 1.83398438 36.63085938 C7.70042545 37.62214166 11.83738547 39.58374549 15.8984375 44.12109375 C20.2888109 51.00863721 21.18915905 56.92405895 20 65 C18.26152384 71.23208122 14.313022 75.43744 9 79 C8.01 79.33 7.02 79.66 6 80 C5.690625 81.11375 5.38125 82.2275 5.0625 83.375 C4 87 4 87 2.3125 88.9375 C-1.05496254 90.48471252 -3.33702407 90.51410188 -7 90 C-9.9375 87.8125 -9.9375 87.8125 -12 85 C-12.3125 82.1875 -12.3125 82.1875 -12 80 C-13.10601562 79.85884766 -13.10601562 79.85884766 -14.234375 79.71484375 C-17.40664639 78.89489225 -18.85351605 77.76232591 -21.25 75.5625 C-21.93578125 74.94503906 -22.6215625 74.32757813 -23.328125 73.69140625 C-25.54666355 71.4469502 -25.96098801 70.35110788 -26.3125 67.1875 C-25.91937952 63.17767106 -24.94829358 61.71553356 -22 59 C-18.33629348 57.75278076 -16.76052334 57.63702295 -13.25 59.3125 C-11 61 -11 61 -9 63 C-6.33050591 63.24315656 -6.33050591 63.24315656 -3.375 63.125 C-2.37210938 63.10695312 -1.36921875 63.08890625 -0.3359375 63.0703125 C0.82035156 63.03550781 0.82035156 63.03550781 2 63 C2.25015873 59.58357241 2.25015873 59.58357241 2 56 C-1.28444609 53.81036928 -2.37524816 53.7896619 -6.1875 53.6875 C-13.40609017 53.1344244 -18.14648026 50.35330458 -22.875 44.9375 C-27.60005216 38.40581025 -27.75544233 32.98473856 -27 25 C-25.34287991 18.85774049 -21.33040143 14.3782588 -16 11 C-13.78125 10.33984375 -13.78125 10.33984375 -12 10 C-11.9175 8.906875 -11.835 7.81375 -11.75 6.6875 C-11 3 -11 3 -9.375 1.0625 C-5.97380129 -0.4590889 -3.68717269 -0.51749792 0 0 Z " fill="#000000" transform="translate(258,70)"/>
</svg>
